<svg width="303" height="63" viewBox="0 0 303 63" fill="none" xmlns="http://www.w3.org/2000/svg">
<path d="M29.5979 5.8541C30.1966 4.01148 32.8034 4.01148 33.4021 5.8541L38.1232 20.384C38.3909 21.208 39.1588 21.766 40.0253 21.766H55.3029C57.2404 21.766 58.0459 24.2452 56.4785 25.384L44.1186 34.364C43.4176 34.8733 43.1243 35.776 43.3921 36.6L48.1131 51.1299C48.7118 52.9726 46.6029 54.5048 45.0354 53.366L32.6756 44.386C31.9746 43.8767 31.0254 43.8767 30.3244 44.386L17.9646 53.366C16.3971 54.5048 14.2882 52.9726 14.8869 51.1299L19.6079 36.6C19.8757 35.776 19.5824 34.8733 18.8814 34.364L6.52151 25.384C4.95408 24.2452 5.75964 21.766 7.69709 21.766H22.9747C23.8412 21.766 24.6091 21.208 24.8768 20.384L29.5979 5.8541Z" fill="#473BF0"/>
<path d="M272.451 6.16312L277.172 20.693C277.574 21.9291 278.726 22.766 280.025 22.766H295.303C296.272 22.766 296.674 24.0056 295.891 24.575L283.531 33.555C282.479 34.3189 282.039 35.673 282.441 36.9091L287.162 51.439C287.461 52.3603 286.407 53.1264 285.623 52.557L273.263 43.577C272.212 42.8131 270.788 42.8131 269.737 43.577L257.377 52.557C256.593 53.1264 255.539 52.3603 255.838 51.4389L260.559 36.9091C260.961 35.673 260.521 34.3189 259.469 33.555L247.109 24.575C246.326 24.0056 246.728 22.766 247.697 22.766H262.975C264.274 22.766 265.426 21.9291 265.828 20.693L270.549 6.16311C270.848 5.24181 272.152 5.2418 272.451 6.16312Z" stroke="#473BF0" stroke-width="2"/>
<path d="M212.451 6.16312L217.172 20.693C217.574 21.9291 218.726 22.766 220.025 22.766H235.303C236.272 22.766 236.674 24.0056 235.891 24.575L223.531 33.555C222.479 34.3189 222.039 35.673 222.441 36.9091L227.162 51.439C227.461 52.3603 226.407 53.1264 225.623 52.557L213.263 43.577C212.212 42.8131 210.788 42.8131 209.737 43.577L197.377 52.557C196.593 53.1264 195.539 52.3603 195.838 51.4389L200.559 36.9091C200.961 35.673 200.521 34.3189 199.469 33.555L187.109 24.575C186.326 24.0056 186.728 22.766 187.697 22.766H202.975C204.274 22.766 205.426 21.9291 205.828 20.693L210.549 6.16311C210.848 5.24181 212.152 5.2418 212.451 6.16312Z" stroke="#473BF0" stroke-width="2"/>
<path d="M152.451 6.16312L157.172 20.693C157.574 21.9291 158.726 22.766 160.025 22.766H175.303C176.272 22.766 176.674 24.0056 175.891 24.575L163.531 33.555C162.479 34.3189 162.039 35.673 162.441 36.9091L167.162 51.439C167.461 52.3603 166.407 53.1264 165.623 52.557L153.263 43.577C152.212 42.8131 150.788 42.8131 149.737 43.577L137.377 52.557C136.593 53.1264 135.539 52.3603 135.838 51.4389L140.559 36.9091C140.961 35.673 140.521 34.3189 139.469 33.555L127.109 24.575C126.326 24.0056 126.728 22.766 127.697 22.766H142.975C144.274 22.766 145.426 21.9291 145.828 20.693L150.549 6.16311C150.848 5.24181 152.152 5.2418 152.451 6.16312Z" stroke="#473BF0" stroke-width="2"/>
<path d="M92.4511 6.16312L97.1721 20.693C97.5737 21.9291 98.7256 22.766 100.025 22.766H115.303C116.272 22.766 116.674 24.0056 115.891 24.575L103.531 33.555C102.479 34.3189 102.039 35.673 102.441 36.9091L107.162 51.439C107.461 52.3603 106.407 53.1264 105.623 52.557L93.2634 43.577C92.2119 42.8131 90.7881 42.8131 89.7366 43.577L77.3768 52.557C76.5931 53.1264 75.5386 52.3603 75.8379 51.4389L80.559 36.9091C80.9606 35.673 80.5206 34.3189 79.4692 33.555L67.1093 24.575C66.3256 24.0056 66.7284 22.766 67.6971 22.766H82.9747C84.2744 22.766 85.4263 21.9291 85.8279 20.693L90.5489 6.16311C90.8483 5.24181 92.1517 5.2418 92.4511 6.16312Z" stroke="#473BF0" stroke-width="2"/>
</svg>
