<svg width="63" height="63" viewBox="0 0 63 63" fill="none" xmlns="http://www.w3.org/2000/svg">
<path d="M29.5979 5.8541C30.1966 4.01148 32.8034 4.01148 33.4021 5.8541L38.1232 20.384C38.3909 21.208 39.1588 21.766 40.0253 21.766H55.3029C57.2404 21.766 58.0459 24.2452 56.4785 25.384L44.1186 34.364C43.4176 34.8733 43.1243 35.776 43.3921 36.6L48.1131 51.1299C48.7118 52.9726 46.6029 54.5048 45.0354 53.366L32.6756 44.386C31.9746 43.8767 31.0254 43.8767 30.3244 44.386L17.9646 53.366C16.3971 54.5048 14.2882 52.9726 14.8869 51.1299L19.6079 36.6C19.8757 35.776 19.5824 34.8733 18.8814 34.364L6.52151 25.384C4.95408 24.2452 5.75964 21.766 7.69709 21.766H22.9747C23.8412 21.766 24.6091 21.208 24.8768 20.384L29.5979 5.8541Z" fill="#473BF0"/>
</svg>
